<svg xmlns="http://www.w3.org/2000/svg" width="24" height="24" viewBox="0 0 117 117">
  <path fill="#ACE4D6" fill-rule="evenodd" d="M0,0v27.27l58.11,33.55 58.11,-33.55V0z"/>
  <path fill="#373B3F" fill-rule="evenodd" d="M0,94.36v21.85h116.22V94.36l-58.11,-33.55z"/>
  <path fill="#52595F" fill-rule="evenodd" d="M58.11,60.82l58.11,33.55V27.27z"/>
  <path fill="#1CC29F" fill-rule="evenodd" d="M0,94.36l58.11,-33.55L0,27.27z"/>
  <path fill="#FFF" fill-rule="evenodd" d="M20.45,39.07l37.66,-21.74L95.77,39.07v58.38H20.45z"/>
  <path fill="transparent" fill-rule="evenodd" d="M20.45,39.49l37.66,-21.75 37.66,21.75v58.38H20.45z" stroke="#FFF" stroke-width="10.368"/>
  <path fill="#1CC29F" fill-rule="evenodd" d="M48.75,66.56l9.13,-5.27L19.87,39.34v21.67c2.85,-1.53 6.44,-2.33 10.55,-2.33 8.95,0 14.61,3.8 18.33,7.88M31.98,96.8c3.81,0 6.68,-1.12 6.68,-3.99 0,-2.93 -3.68,-4.06 -8.24,-5.18 -3.39,-0.87 -7.28,-1.74 -10.55,-3.38v5.57c2.75,4.43 7.3,6.99 12.1,6.99"/>
  <path fill="#52595F" fill-rule="evenodd" d="M95.89,83.23V39.34L57.88,61.28z"/>
  <path fill="#ACE4D6" fill-rule="evenodd" d="M95.89,39.34L57.88,17.4 19.87,39.34l38.01,21.94z"/>
  <path fill="#373B3F" fill-rule="evenodd" d="M57.88,61.28l-9.13,5.27 -9.79,5.65c-2.5,-1.99 -5.68,-3.42 -8.6,-3.42 -3.56,0 -5.37,1.18 -5.37,3.37 0,2.53 2.48,3.73 5.91,4.71 0.72,0.2 1.48,0.4 2.27,0.6 7.55,1.81 17.66,4.12 17.66,14.48 0,2.17 -0.46,4.34 -1.46,6.32h46.52V83.23L57.88,61.28z"/>
  <path fill="#FFF" fill-rule="evenodd" d="M33.16,77.46c-0.79,-0.19 -1.55,-0.39 -2.27,-0.6 -3.43,-0.98 -5.91,-2.18 -5.91,-4.71 0,-2.18 1.81,-3.37 5.37,-3.37 2.92,0 6.1,1.43 8.6,3.42l9.79,-5.65c-3.72,-4.08 -9.38,-7.88 -18.33,-7.88 -4.11,0 -7.7,0.8 -10.55,2.33v23.24c3.26,1.64 7.15,2.51 10.55,3.38 4.55,1.12 8.24,2.25 8.24,5.18 0,2.87 -2.87,3.99 -6.68,3.99 -4.8,0 -9.36,-2.56 -12.1,-6.99v8.44h29.49c1,-1.98 1.46,-4.14 1.46,-6.32 0,-10.36 -10.11,-12.67 -17.66,-14.48"/>
</svg>
